<svg version="1.1" id="Layer_1" xmlns="http://www.w3.org/2000/svg" x="0" y="0" viewBox="0 0 1274.31 1274.31" xml:space="preserve"><style>.st0{fill:#2B2D2F}</style><path class="st0" d="M713.52 382.6l25.46-25.46 25.46-25.46 25.46-25.46-25.46-25.46-25.46-25.46 12.24-12.24c7.3-7.3 19.13-7.3 26.43 0l37.7 37.7 12.36-12.36c7.23-7.23 7.23-18.96 0-26.19l-37.82-37.82-19.09-19.09-6.36-6.36-50.91 50.91-19.09 19.09-6.36 6.36 50.91 50.91-13.04 13.04c-6.86 6.86-17.97 6.86-24.83 0l-38.5-38.5-12.56 12.56c-7.12 7.12-7.12 18.67 0 25.8l38.01 38.01 25.45 25.48zM840.8 458.96l-25.46-25.46-25.46 25.46-25.46 25.46-11.4 11.4c-7.76 7.76-7.76 20.35 0 28.11l11.4 11.4 25.46 25.46 25.46 25.46 25.46-25.46 25.46-25.46 25.46-25.46 88.97-88.97c7.1-7.1 7.1-18.61 0-25.72l-12.6-12.6-88.29 88.29c-7.47 7.47-19.59 7.47-27.07 0l-11.93-11.91zm-25.45 76.37l-25.46-25.46 25.46-25.46 25.46 25.46-25.46 25.46z"/><path class="st0" d="M840.8 408.05l25.46 25.46 25.46-25.46 50.91-50.91-25.46-25.46-50.91 50.91-12.44-12.44c-7.19-7.19-7.19-18.84 0-26.03l37.9-37.9-12.36-12.36c-7.24-7.24-18.97-7.24-26.2 0l-37.81 37.81-25.46 25.46 25.46 25.46 25.45 25.46zM993.54 560.79l12.69 12.69c7.05 7.05 18.48 7.05 25.53 0l12.69-12.69 25.46-25.46 12.48-12.48c7.17-7.17 7.17-18.79 0-25.95l-12.48-12.48-25.46-25.46-25.46-25.46-25.46 25.46-25.46 25.46-12.74 12.74c-7.02 7.02-7.02 18.41 0 25.44l12.74 12.74 25.47 25.45zm42.36-59.46l8.55 8.55-25.46 25.46-25.46-25.46 8.55-8.55c9.34-9.34 24.48-9.34 33.82 0zM701.15 472.05c6.83 6.83 17.92 6.83 24.75 0l13.08-13.08 50.91-50.91-25.46-25.46-50.91 50.91L611.7 331.69l-25.46 25.46 101.82 101.82 13.09 13.08zM630.79 1076.27l-25.46-25.46-44.55 44.55-13.3 13.3c-6.71 6.71-6.71 17.59 0 24.31l13.3 13.3 50.91 50.91 25.46-25.46-50.91-50.91 44.55-44.54zM917.17 637.16l-11.63 11.63c-7.64 7.64-7.64 20.02 0 27.66l11.63 11.63 25.46-25.46-25.46-25.46z"/><path class="st0" d="M891.71 764.44l11.74 11.74c7.57 7.57 19.85 7.57 27.43 0l11.74-11.74 76.37-76.37 11.7-11.7c7.6-7.6 7.6-19.91 0-27.51l-11.7-11.7-76.37-76.37-11.41-11.41c-7.76-7.76-20.33-7.76-28.09 0l-11.41 11.41-76.37 76.37L803.5 649c-7.52 7.52-7.52 19.7 0 27.22l11.85 11.85 76.36 76.37zm25.46-178.2l76.37 76.37-76.37 76.37-76.37-76.37 76.37-76.37zM1197.18 611.7l-19.09-19.09-6.36-6.36-50.91 50.91-12.14-12.14c-7.35-7.35-7.35-19.28 0-26.63l37.6-37.6-25.46-25.46-50.91 50.91-25.46 25.46 25.46 25.46 25.46 25.46 25.46 25.46 25.46-25.46 25.46-25.46 12.83 12.83c6.97 6.97 6.97 18.28 0 25.25l-38.29 38.29 25.46 25.46 50.91-50.91 19.09-19.09 6.36-6.36-50.93-50.93zM1069.91 688.07l-25.46 25.46-25.46 25.46-25.46 25.46 25.46 25.46 50.91 50.91 25.46-25.46-50.91-50.91 12.39-12.39c7.21-7.21 18.91-7.21 26.12 0l37.85 37.85 25.46-25.46-50.91-50.91-25.45-25.47zM750.91 878.19l-37.38-37.38-25.46 25.46 50.91 50.91 11.93-11.93c7.47-7.48 7.47-19.59 0-27.06zM789.89 764.44l64.02 64.02c6.82 6.82 17.87 6.82 24.69 0l13.11-13.11-76.37-76.37-25.45 25.46zM917.17 840.8l-11.11 11.11c-7.92 7.92-7.92 20.77 0 28.7l11.11 11.11 25.46-25.46-25.46-25.46zM815.35 1044.45l-25.46-25.46-25.46-25.46-25.46-25.46-25.46-25.46-25.46 25.46-50.91 50.91 25.46 25.46 36.74-36.74c7.82-7.82 20.51-7.82 28.33 0l11.29 11.29-50.91 50.91 12.73 12.73 12.73 12.73 25.46 25.46 6.36 6.36 6.24 6.24c7.1 7.1 18.6 7.1 25.7 0l63.52-63.52-19.09-19.09-6.35-6.36zm-76.37 25.46l25.46-25.46 11.96 11.96c7.45 7.45 7.45 19.54 0 26.99l-11.96 11.96-25.46-25.45zM764.44 738.98l25.46-25.46-38.27-38.27c-6.98-6.98-6.98-18.31 0-25.29l38.27-38.27-25.46-25.46-50.91 50.91-25.46-25.46 38.18-38.18c7.03-7.03 7.03-18.43 0-25.46l-12.73-12.73-76.37-76.37-19.09-19.09-6.36-6.36-50.91 50.91-19.09 19.09-6.36 6.36 50.91 50.91-25.46 25.46-50.91-50.91-25.46 25.46 38.49 38.49c6.86 6.86 6.86 17.99 0 24.85l-38.49 38.49 25.46 25.46 50.91-50.91 25.46 25.46-38.18 38.18c-7.03 7.03-7.03 18.43 0 25.46l12.73 12.73 76.37 76.37 19.09 19.09 6.36 6.36 50.91-50.91 19.09-19.09 6.36-6.36-50.91-50.91 25.46-25.46 50.91 50.91zm-101.83-50.91l-25.46 25.46 25.46 25.46 25.46 25.46-12.8 12.8c-6.99 6.99-18.33 6.99-25.32 0l-63.71-63.71 25.46-25.46 25.46-25.46-25.46-25.46-25.46-25.46 25.46-25.46 25.46-25.46-25.46-25.46-25.46-25.46 12.02-12.02c7.42-7.42 19.45-7.42 26.87 0l62.93 62.93-25.46 25.46-25.46 25.46 25.46 25.46 25.46 25.46-25.45 25.46z"/><path class="st0" d="M968.08 789.89l-25.46 25.46 39.85 39.85c6.11 6.11 6.11 16.02 0 22.13l-39.85 39.85 25.46 25.46 50.91-50.91 25.46-25.46-25.46-25.46-50.91-50.92zM662.61 1095.36l-25.46 25.46 37.27 37.27c7.53 7.53 7.53 19.75 0 27.28l-37.27 37.27 25.46 25.46 50.91-50.91 25.46-25.46-25.46-25.46-50.91-50.91zM866.26 891.71l-25.46-25.46-76.37-76.37-25.46 25.46 76.37 76.37-37.43 37.43c-7.45 7.45-7.45 19.52 0 26.96l11.98 11.98 50.91-50.91 37.68 37.68c7.31 7.31 7.31 19.15 0 26.46l-12.23 12.23-25.46-25.46-25.46 25.46 25.46 25.46 25.46 25.46 25.46-25.46 25.46-25.46 25.46-25.46-25.46-25.46-50.91-50.91z"/><g><path class="st0" d="M560.79 891.71l-25.46 25.46-25.46 25.46-25.46 25.46 25.46 25.46 25.46 25.46-12.24 12.24c-7.3 7.3-19.13 7.3-26.43 0l-37.7-37.7-12.36 12.36c-7.23 7.23-7.23 18.96 0 26.19l37.82 37.82 19.09 19.09 6.36 6.36 50.91-50.91 19.09-19.09 6.36-6.36-50.91-50.91 13.04-13.04c6.86-6.86 17.97-6.86 24.83 0l38.5 38.5L624.25 981c7.12-7.12 7.12-18.67 0-25.8l-38.01-38.01-25.45-25.48zM433.51 815.35l25.46 25.46 25.46-25.46 25.46-25.46 11.4-11.4c7.76-7.76 7.76-20.35 0-28.11l-11.4-11.4-25.46-25.46-25.46-25.46-25.46 25.46-25.46 25.46-25.46 25.46-88.97 88.97c-7.1 7.1-7.1 18.61 0 25.72l12.6 12.6 88.29-88.29c7.47-7.47 19.59-7.47 27.07 0l11.93 11.91zm25.45-76.37l25.46 25.46-25.46 25.46-25.46-25.46 25.46-25.46z"/><path class="st0" d="M433.51 866.26l-25.46-25.46-25.46 25.46-50.91 50.91 25.46 25.46 50.91-50.91 12.44 12.44c7.19 7.19 7.19 18.84 0 26.03l-37.9 37.9 12.36 12.36c7.24 7.24 18.97 7.24 26.2 0l37.81-37.81 25.46-25.46-25.46-25.46-25.45-25.46zM280.77 713.52l-12.69-12.69c-7.05-7.05-18.48-7.05-25.53 0l-12.69 12.69-25.46 25.46-12.48 12.48c-7.17 7.17-7.17 18.79 0 25.95l12.48 12.48 25.46 25.46 25.46 25.46 25.46-25.46 25.46-25.46 12.74-12.74c7.02-7.02 7.02-18.41 0-25.44l-12.74-12.74-25.47-25.45zm-42.36 59.46l-8.55-8.55 25.46-25.46 25.46 25.46-8.55 8.55c-9.34 9.34-24.48 9.34-33.82 0zM573.16 802.27c-6.83-6.83-17.92-6.83-24.75 0l-13.08 13.08-50.91 50.91 25.46 25.46 50.91-50.91 101.82 101.82 25.46-25.46-101.83-101.82-13.08-13.08zM643.52 198.04l25.46 25.46 44.55-44.55 13.3-13.3c6.71-6.71 6.71-17.59 0-24.31l-13.3-13.3-50.91-50.91-25.46 25.46 50.91 50.91-44.55 44.54zM357.14 637.16l11.63-11.63c7.64-7.64 7.64-20.02 0-27.66l-11.63-11.63-25.46 25.46 25.46 25.46z"/><path class="st0" d="M382.6 509.88l-11.74-11.74c-7.57-7.57-19.85-7.57-27.43 0l-11.74 11.74-76.37 76.37-11.7 11.7c-7.6 7.6-7.6 19.91 0 27.51l11.7 11.7 76.37 76.37 11.41 11.41c7.76 7.76 20.33 7.76 28.09 0l11.41-11.41 76.37-76.37 11.85-11.85c7.52-7.52 7.52-19.7 0-27.22l-11.85-11.85-76.37-76.36zm-25.46 178.19l-76.37-76.37 76.37-76.37 76.37 76.37-76.37 76.37zM77.13 662.61l19.09 19.09 6.36 6.36 50.91-50.91 12.14 12.14c7.35 7.35 7.35 19.28 0 26.63l-37.6 37.6 25.46 25.46 50.91-50.91 25.46-25.46-25.46-25.46-25.46-25.46-25.46-25.46-25.46 25.46-25.46 25.46-12.83-12.83c-6.97-6.97-6.97-18.28 0-25.25l38.29-38.29-25.46-25.46-50.91 50.91-19.09 19.09-6.36 6.36 50.93 50.93zM204.41 586.24l25.46-25.46 25.46-25.46 25.46-25.46-25.46-25.46-50.91-50.91-25.46 25.46 50.91 50.91-12.39 12.39c-7.21 7.21-18.91 7.21-26.12 0l-37.85-37.85-25.46 25.46 50.91 50.91 25.45 25.47zM523.41 396.13l37.38 37.38 25.46-25.46-50.91-50.91-11.93 11.93c-7.48 7.47-7.48 19.58 0 27.06zM484.42 509.88l-64.02-64.02c-6.82-6.82-17.87-6.82-24.69 0l-13.11 13.11 76.37 76.37 25.45-25.46zM357.14 433.51l11.11-11.11c7.92-7.92 7.92-20.77 0-28.7l-11.11-11.11-25.46 25.46 25.46 25.46zM458.96 229.86l25.46 25.46 25.46 25.46 25.46 25.46 25.46 25.46 25.46-25.46 50.91-50.91-25.46-25.46-36.74 36.74c-7.82 7.82-20.51 7.82-28.33 0l-11.29-11.29 50.91-50.91-12.73-12.73-12.73-12.73-25.46-25.46-6.36-6.36-6.24-6.24c-7.1-7.1-18.6-7.1-25.7 0l-63.52 63.52 19.09 19.09 6.35 6.36zm76.37-25.45l-25.46 25.46-11.96-11.96c-7.45-7.45-7.45-19.54 0-26.99l11.96-11.96 25.46 25.45zM509.88 535.33l-25.46 25.46 38.27 38.27c6.98 6.98 6.98 18.31 0 25.29l-38.27 38.27 25.46 25.46 50.91-50.91 25.46 25.46-38.18 38.18c-7.03 7.03-7.03 18.43 0 25.46L560.8 739l76.37 76.37 19.09 19.09 6.36 6.36 50.91-50.91 19.09-19.09 6.36-6.36-50.91-50.91 25.46-25.46L764.44 739l25.46-25.46-38.49-38.49c-6.86-6.86-6.86-17.99 0-24.85l38.49-38.49-25.46-25.46-50.91 50.91-25.46-25.46 38.18-38.18c7.03-7.03 7.03-18.43 0-25.46l-12.73-12.73-76.37-76.37-19.09-19.09-6.36-6.36-50.91 50.91-19.09 19.09-6.36 6.36 50.91 50.91-25.46 25.46-50.91-50.91zm101.82 50.91l25.46-25.46-25.46-25.46-25.46-25.46 12.8-12.8c6.99-6.99 18.33-6.99 25.32 0l63.71 63.71-25.46 25.46-25.46 25.46 25.46 25.46 25.46 25.46-25.46 25.46-25.46 25.46 25.46 25.46 25.46 25.46-12.02 12.02c-7.42 7.42-19.45 7.42-26.87 0l-62.93-62.93 25.46-25.46 25.46-25.46-25.46-25.46-25.46-25.46 25.45-25.46z"/><path class="st0" d="M306.23 484.42l25.46-25.46-39.85-39.85c-6.11-6.11-6.11-16.02 0-22.13l39.85-39.85-25.46-25.46-50.91 50.91-25.46 25.46 25.46 25.46 50.91 50.92zM611.7 178.95l25.46-25.46-37.27-37.27c-7.53-7.53-7.53-19.75 0-27.28l37.27-37.27-25.46-25.45-50.91 50.91-25.46 25.46 25.46 25.46 50.91 50.9zM408.05 382.6l25.46 25.46 76.37 76.37 25.46-25.46-76.37-76.37 37.43-37.43c7.45-7.45 7.45-19.52 0-26.96l-11.98-11.98-50.91 50.91-37.68-37.68c-7.31-7.31-7.31-19.15 0-26.46l12.23-12.23 25.46 25.46 25.46-25.46-25.46-25.46-25.46-25.46-25.46 25.46-25.46 25.46-25.46 25.46 25.46 25.46 50.91 50.91z"/></g></svg>
