<?xml version="1.0" encoding="UTF-8" standalone="no"?>
<!DOCTYPE svg PUBLIC "-//W3C//DTD SVG 1.1//EN" "http://www.w3.org/Graphics/SVG/1.1/DTD/svg11.dtd">
<svg width="100%" height="100%" viewBox="0 0 2953 2953" version="1.1" xmlns="http://www.w3.org/2000/svg" xmlns:xlink="http://www.w3.org/1999/xlink" xml:space="preserve" xmlns:serif="http://www.serif.com/" style="fill-rule:evenodd;clip-rule:evenodd;stroke-linejoin:round;stroke-miterlimit:2;">
    <g transform="matrix(0.977408,0,0,0.977408,33.3959,33.3601)">
        <path d="M1478.2,40.374L2722.02,758.495L2722.02,2194.74L1478.2,2912.86L234.38,2194.74L234.38,758.495L1478.2,40.374Z" style="fill:#2B2D2F;"/>
    </g>
    <g>
        <path d="M1478.2,40.374L2722.02,758.495L2722.02,2194.74L1478.2,2912.86L234.38,2194.74L234.38,758.495L1478.2,40.374ZM1483.89,98.984L2664.98,785.721L2664.98,2159.19L1483.89,2845.93L302.797,2159.19L302.797,785.721L1483.89,98.984Z" style="fill:#494c4f;"/>
        <g transform="matrix(0.866025,-0.5,0.5,0.866025,483.981,634.773)">
            <rect x="467.346" y="165.996" width="540.296" height="47.873" style="fill:#494c4f;"/>
        </g>
        <g transform="matrix(2.08792,-1.20546,0.5,0.866025,-718.702,1233.98)">
            <rect x="467.346" y="165.996" width="540.296" height="47.873" style="fill:#494c4f;"/>
        </g>
        <g transform="matrix(0.575065,-0.332014,0.5,0.866025,1070.65,737.284)">
            <rect x="467.346" y="165.996" width="540.296" height="47.873" style="fill:#494c4f;"/>
        </g>
        <g transform="matrix(0.628296,-0.362747,0.5,0.866025,537.357,1156.8)">
            <rect x="467.346" y="165.996" width="540.296" height="47.873" style="fill:#494c4f;"/>
        </g>
        <g transform="matrix(0.49627,-0.286522,0.5,0.866025,1059.58,637.255)">
            <rect x="467.346" y="165.996" width="540.296" height="47.873" style="fill:#494c4f;"/>
        </g>
        <g transform="matrix(0.306072,0.176711,-0.5,0.866025,2022.11,640.111)">
            <rect x="467.346" y="165.996" width="540.296" height="47.873" style="fill:#494c4f;"/>
        </g>
        <g transform="matrix(0.532989,-0.307722,0.5,0.866025,675.341,1181.59)">
            <rect x="467.346" y="165.996" width="540.296" height="47.873" style="fill:#494c4f;"/>
        </g>
        <g transform="matrix(0.448427,-0.258899,0.5,0.866025,814.673,1217.41)">
            <rect x="467.346" y="165.996" width="540.296" height="47.873" style="fill:#494c4f;"/>
        </g>
        <g transform="matrix(0.353647,-0.204178,0.5,0.866025,961.11,1244.72)">
            <rect x="467.346" y="165.996" width="540.296" height="47.873" style="fill:#494c4f;"/>
        </g>
        <g transform="matrix(0.142899,-0.0825028,0.5,0.866025,1707.72,816.059)">
            <rect x="467.346" y="165.996" width="540.296" height="47.873" style="fill:#494c4f;"/>
        </g>
        <g transform="matrix(0.0728106,-0.0420372,0.5,0.866025,1697.31,716.155)">
            <rect x="467.346" y="165.996" width="540.296" height="47.873" style="fill:#494c4f;"/>
        </g>
        <g transform="matrix(1.32395,-0.764385,0.5,0.866025,597.722,1557.91)">
            <rect x="467.346" y="165.996" width="540.296" height="47.873" style="fill:#494c4f;"/>
        </g>
        <g transform="matrix(1.66533e-16,1,-1,1.66533e-16,2699.91,1033.86)">
            <rect x="467.346" y="165.996" width="540.296" height="47.873" style="fill:#494c4f;"/>
        </g>
        <g transform="matrix(4.44089e-16,2.41092,-1,5.55112e-17,2782.32,-307.304)">
            <rect x="467.346" y="165.996" width="540.296" height="47.873" style="fill:#494c4f;"/>
        </g>
        <g transform="matrix(1.66533e-16,0.664028,-1,1.11022e-16,2317.79,1490.67)">
            <rect x="467.346" y="165.996" width="540.296" height="47.873" style="fill:#494c4f;"/>
        </g>
        <g transform="matrix(2.22045e-16,0.725494,-1,1.66533e-16,2221.13,819.065)">
            <rect x="467.346" y="165.996" width="540.296" height="47.873" style="fill:#494c4f;"/>
        </g>
        <g transform="matrix(1.38778e-16,0.573043,-1,1.11022e-16,2409.96,1531.1)">
            <rect x="467.346" y="165.996" width="540.296" height="47.873" style="fill:#494c4f;"/>
        </g>
        <g transform="matrix(-0.306072,0.176711,-0.5,-0.866025,1926.22,2363.24)">
            <rect x="467.346" y="165.996" width="540.296" height="47.873" style="fill:#494c4f;"/>
        </g>
        <g transform="matrix(1.11022e-16,0.615443,-1,5.55112e-17,2130.67,926.17)">
            <rect x="467.346" y="165.996" width="540.296" height="47.873" style="fill:#494c4f;"/>
        </g>
        <g transform="matrix(1.11022e-16,0.517798,-1,1.11022e-16,2029.98,1028.92)">
            <rect x="467.346" y="165.996" width="540.296" height="47.873" style="fill:#494c4f;"/>
        </g>
        <g transform="matrix(1.11022e-16,0.408357,-1,5.55112e-17,1933.11,1142.09)">
            <rect x="467.346" y="165.996" width="540.296" height="47.873" style="fill:#494c4f;"/>
        </g>
        <g transform="matrix(5.55112e-17,0.165006,-1,1.11022e-16,1931.04,2003)">
            <rect x="467.346" y="165.996" width="540.296" height="47.873" style="fill:#494c4f;"/>
        </g>
        <g transform="matrix(2.77556e-17,0.0840744,-1,1.11022e-16,2022.76,2043.94)">
            <rect x="467.346" y="165.996" width="540.296" height="47.873" style="fill:#494c4f;"/>
        </g>
        <g transform="matrix(0,1.52877,-1,1.11022e-16,1843.58,670.791)">
            <rect x="467.346" y="165.996" width="540.296" height="47.873" style="fill:#494c4f;"/>
        </g>
        <g transform="matrix(-0.866025,-0.5,0.5,-0.866025,1245.08,2755.34)">
            <rect x="467.346" y="165.996" width="540.296" height="47.873" style="fill:#494c4f;"/>
        </g>
        <g transform="matrix(-2.08792,-1.20546,0.5,-0.866025,2365.35,3497.29)">
            <rect x="467.346" y="165.996" width="540.296" height="47.873" style="fill:#494c4f;"/>
        </g>
        <g transform="matrix(-0.575065,-0.332014,0.5,-0.866025,1040.52,2196.01)">
            <rect x="467.346" y="165.996" width="540.296" height="47.873" style="fill:#494c4f;"/>
        </g>
        <g transform="matrix(-0.628296,-0.362747,0.5,-0.866025,1670.48,2448.1)">
            <rect x="467.346" y="165.996" width="540.296" height="47.873" style="fill:#494c4f;"/>
        </g>
        <g transform="matrix(-0.49627,-0.286522,0.5,-0.866025,959.43,2255.62)">
            <rect x="467.346" y="165.996" width="540.296" height="47.873" style="fill:#494c4f;"/>
        </g>
        <g transform="matrix(-2.498e-16,-0.353422,1,-6.10623e-16,480.639,1420.61)">
            <rect x="467.346" y="165.996" width="540.296" height="47.873" style="fill:#494c4f;"/>
        </g>
        <g transform="matrix(-0.532989,-0.307722,0.5,-0.866025,1622.95,2316.21)">
            <rect x="467.346" y="165.996" width="540.296" height="47.873" style="fill:#494c4f;"/>
        </g>
        <g transform="matrix(-0.448427,-0.258899,0.5,-0.866025,1584.31,2177.63)">
            <rect x="467.346" y="165.996" width="540.296" height="47.873" style="fill:#494c4f;"/>
        </g>
        <g transform="matrix(-0.353647,-0.204178,0.5,-0.866025,1534.74,2037.16)">
            <rect x="467.346" y="165.996" width="540.296" height="47.873" style="fill:#494c4f;"/>
        </g>
        <g transform="matrix(-0.142899,-0.0825028,0.5,-0.866025,790.207,1604.91)">
            <rect x="467.346" y="165.996" width="540.296" height="47.873" style="fill:#494c4f;"/>
        </g>
        <g transform="matrix(-0.0728106,-0.0420372,0.5,-0.866025,708.891,1663.87)">
            <rect x="467.346" y="165.996" width="540.296" height="47.873" style="fill:#494c4f;"/>
        </g>
        <g transform="matrix(-1.32395,-0.764385,0.5,-0.866025,1987.66,2195.27)">
            <rect x="467.346" y="165.996" width="540.296" height="47.873" style="fill:#494c4f;"/>
        </g>
        <path d="M1327.06,1443.56L757.41,1114.67L733.473,1156.13L1517.9,1609.02L1517.9,2276.9L1565.77,2276.9L1565.77,1361.01L2150.76,1023.27L2126.82,981.814L1327.06,1443.56ZM1466.41,1422.72L1508.19,1446.84L1508.19,1495.09L1466.41,1519.21L1424.63,1495.09L1424.63,1446.84L1466.41,1422.72Z" style="fill:#494c4f;"/>
        <g transform="matrix(1.16776,-0.674207,0.674207,1.16776,828.662,994.807)">
            <path d="M495.5,369C505.098,368.995 512.995,361.098 513,351.5L513,261L477,261L477,333L333,333L333,369L495.5,369Z" style="fill:#494c4f;fill-rule:nonzero;"/>
        </g>
        <g transform="matrix(-1.16776,0.674207,-0.674207,-1.16776,1573.27,773.238)">
            <path d="M495.5,369C505.098,368.995 512.995,361.098 513,351.5L513,261L477,261L477,333L333,333L333,369L495.5,369Z" style="fill:#494c4f;fill-rule:nonzero;"/>
        </g>
        <g transform="matrix(1.16776,-0.674207,0.674207,1.16776,386.563,805.156)">
            <path d="M495.5,369C505.098,368.995 512.995,361.098 513,351.5L513,261L477,261L477,333L333,333L333,369L495.5,369Z" style="fill:#494c4f;fill-rule:nonzero;"/>
        </g>
        <g transform="matrix(0.674207,-1.16776,1.16776,0.674207,736.254,1341.13)">
            <path d="M873,846L837,846L837,927.81C837,937.24 844.76,945 854.19,945L945,945L945,909L873,909L873,846Z" style="fill:#494c4f;fill-rule:nonzero;"/>
        </g>
        <g transform="matrix(0.674207,-1.16776,1.16776,0.674207,736.254,1341.13)">
            <path d="M817.87,621L765,621L765,657L837,657L837,640.13C836.995,629.638 828.362,621.005 817.87,621Z" style="fill:#494c4f;fill-rule:nonzero;"/>
        </g>
        <g transform="matrix(0.674207,-1.16776,1.16776,0.674207,736.254,1341.13)">
            <path d="M909,477L909,492.71C909,492.713 909,492.717 909,492.72C909,503.845 918.155,513 929.28,513C929.283,513 929.287,513 929.29,513L945,513L945,477L909,477Z" style="fill:#494c4f;fill-rule:nonzero;"/>
        </g>
        <g transform="matrix(9.99201e-16,1.34841,-1.34841,9.99201e-16,2215.77,1152.34)">
            <path d="M495.5,369C505.098,368.995 512.995,361.098 513,351.5L513,261L477,261L477,333L333,333L333,369L495.5,369Z" style="fill:#494c4f;fill-rule:nonzero;"/>
        </g>
        <g transform="matrix(-2.10942e-15,-1.34841,1.34841,-2.10942e-15,2035.35,1907.97)">
            <path d="M495.5,369C505.098,368.995 512.995,361.098 513,351.5L513,261L477,261L477,333L333,333L333,369L495.5,369Z" style="fill:#494c4f;fill-rule:nonzero;"/>
        </g>
        <g transform="matrix(1.88738e-15,1.34841,-1.34841,1.88738e-15,2601.06,864.297)">
            <path d="M495.5,369C505.098,368.995 512.995,361.098 513,351.5L513,261L477,261L477,333L333,333L333,369L495.5,369Z" style="fill:#494c4f;fill-rule:nonzero;"/>
        </g>
        <g transform="matrix(0.674207,1.16776,-1.16776,0.674207,1962.05,899.152)">
            <path d="M873,846L837,846L837,927.81C837,937.24 844.76,945 854.19,945L945,945L945,909L873,909L873,846Z" style="fill:#494c4f;fill-rule:nonzero;"/>
        </g>
        <g transform="matrix(0.674207,1.16776,-1.16776,0.674207,1962.05,899.152)">
            <path d="M817.87,621L765,621L765,657L837,657L837,640.13C836.995,629.638 828.362,621.005 817.87,621Z" style="fill:#494c4f;fill-rule:nonzero;"/>
        </g>
        <g transform="matrix(0.674207,1.16776,-1.16776,0.674207,1962.05,899.152)">
            <path d="M909,477L909,492.71C909,492.713 909,492.717 909,492.72C909,503.845 918.155,513 929.28,513C929.283,513 929.287,513 929.29,513L945,513L945,477L909,477Z" style="fill:#494c4f;fill-rule:nonzero;"/>
        </g>
        <g transform="matrix(-1.16776,-0.674207,0.674207,-1.16776,1384.54,2276.82)">
            <path d="M495.5,369C505.098,368.995 512.995,361.098 513,351.5L513,261L477,261L477,333L333,333L333,369L495.5,369Z" style="fill:#494c4f;fill-rule:nonzero;"/>
        </g>
        <g transform="matrix(1.16776,0.674207,-0.674207,1.16776,820.35,1742.76)">
            <path d="M495.5,369C505.098,368.995 512.995,361.098 513,351.5L513,261L477,261L477,333L333,333L333,369L495.5,369Z" style="fill:#494c4f;fill-rule:nonzero;"/>
        </g>
        <g transform="matrix(-1.16776,-0.674207,0.674207,-1.16776,1441.34,2754.52)">
            <path d="M495.5,369C505.098,368.995 512.995,361.098 513,351.5L513,261L477,261L477,333L333,333L333,369L495.5,369Z" style="fill:#494c4f;fill-rule:nonzero;"/>
        </g>
        <g transform="matrix(-1.34841,2.22045e-15,-2.22045e-15,-1.34841,1730.66,2183.69)">
            <path d="M873,846L837,846L837,927.81C837,937.24 844.76,945 854.19,945L945,945L945,909L873,909L873,846Z" style="fill:#494c4f;fill-rule:nonzero;"/>
        </g>
        <g transform="matrix(-1.34841,2.22045e-15,-2.22045e-15,-1.34841,1730.66,2183.69)">
            <path d="M817.87,621L765,621L765,657L837,657L837,640.13C836.995,629.638 828.362,621.005 817.87,621Z" style="fill:#494c4f;fill-rule:nonzero;"/>
        </g>
        <g transform="matrix(-1.34841,2.22045e-15,-2.22045e-15,-1.34841,1730.66,2183.69)">
            <path d="M909,477L909,492.71C909,492.713 909,492.717 909,492.72C909,503.845 918.155,513 929.28,513C929.283,513 929.287,513 929.29,513L945,513L945,477L909,477Z" style="fill:#494c4f;fill-rule:nonzero;"/>
        </g>
    </g>
    <g>
        <g transform="matrix(1.16776,-0.674207,0.674207,1.16776,828.662,994.807)">
            <path d="M441,297L441,189L369,189L369,171.69C369,161.437 377.437,153 387.69,153L441,153L441,135.52C441,125.36 432.64,117 422.48,117L333,117L333,225L405,225L405,243.44C405,253.073 397.073,261 387.44,261L333,261L333,278.76C333,288.766 341.234,297 351.24,297L441,297Z" style="fill:#654ea3;fill-rule:nonzero;"/>
        </g>
        <g transform="matrix(1.16776,-0.674207,0.674207,1.16776,273.591,989.844)">
            <path d="M441,297L441,189L369,189L369,171.69C369,161.437 377.437,153 387.69,153L441,153L441,135.52C441,125.36 432.64,117 422.48,117L333,117L333,225L405,225L405,243.44C405,253.073 397.073,261 387.44,261L333,261L333,278.76C333,288.766 341.234,297 351.24,297L441,297Z" style="fill:#654ea3;fill-rule:nonzero;"/>
        </g>
        <g transform="matrix(1.16776,-0.674207,0.674207,1.16776,828.662,994.807)">
            <path d="M601.86,261L549,261L549,349.13C549,360.03 557.97,369 568.87,369L657,369L657,135.18C657,125.207 648.793,117 638.82,117L621,117L621,241.86C621,252.36 612.36,261 601.86,261ZM621,333L585,333L585,297L621,297L621,333Z" style="fill:#654ea3;fill-rule:nonzero;"/>
        </g>
        <g transform="matrix(-1.16776,0.674207,-0.674207,-1.16776,1578.87,769.48)">
            <path d="M601.86,261L549,261L549,349.13C549,360.03 557.97,369 568.87,369L657,369L657,135.18C657,125.207 648.793,117 638.82,117L621,117L621,241.86C621,252.36 612.36,261 601.86,261ZM621,333L585,333L585,297L621,297L621,333Z" style="fill:#654ea3;fill-rule:nonzero;"/>
        </g>
        <g transform="matrix(1.16776,-0.674207,0.674207,1.16776,382.035,808.523)">
            <path d="M601.86,261L549,261L549,349.13C549,360.03 557.97,369 568.87,369L657,369L657,135.18C657,125.207 648.793,117 638.82,117L621,117L621,241.86C621,252.36 612.36,261 601.86,261ZM621,333L585,333L585,297L621,297L621,333Z" style="fill:#654ea3;fill-rule:nonzero;"/>
        </g>
        <g transform="matrix(1.16776,-0.674207,0.674207,1.16776,828.662,994.807)">
            <path d="M477,225L585,225L585,117L549,117L549,189L531.41,189C521.311,189 513,180.689 513,170.59L513,117L495.53,117C495.527,117 495.523,117 495.52,117C485.36,117 477,125.36 477,135.52C477,135.523 477,135.527 477,135.53L477,225Z" style="fill:#654ea3;fill-rule:nonzero;"/>
        </g>
        <g transform="matrix(1.16776,-0.674207,0.674207,1.16776,384.059,812.61)">
            <path d="M477,225L585,225L585,117L549,117L549,189L531.41,189C521.311,189 513,180.689 513,170.59L513,117L495.53,117C495.527,117 495.523,117 495.52,117C485.36,117 477,125.36 477,135.52C477,135.523 477,135.527 477,135.53L477,225Z" style="fill:#654ea3;fill-rule:nonzero;"/>
        </g>
        <g transform="matrix(1.16776,-0.674207,0.674207,1.16776,828.662,994.807)">
            <path d="M711,225L783,225C792.875,225 801,216.875 801,207L801,135.4C801,135.387 801,135.373 801,135.36C801,125.292 792.718,117.005 782.65,117L693,117L693,207C693,216.875 701.125,225 711,225ZM752.91,153L765,153L765,189L729,189L729,176.91C729.005,163.795 739.795,153.005 752.91,153Z" style="fill:#654ea3;fill-rule:nonzero;"/>
        </g>
        <g transform="matrix(1.16776,-0.674207,0.674207,1.16776,381.804,812.478)">
            <path d="M711,225L783,225C792.875,225 801,216.875 801,207L801,135.4C801,135.387 801,135.373 801,135.36C801,125.292 792.718,117.005 782.65,117L693,117L693,207C693,216.875 701.125,225 711,225ZM752.91,153L765,153L765,189L729,189L729,176.91C729.005,163.795 739.795,153.005 752.91,153Z" style="fill:#654ea3;fill-rule:nonzero;"/>
        </g>
        <g transform="matrix(0.674207,-1.16776,1.16776,0.674207,736.254,1341.13)">
            <path d="M1017,117L909,117L909,189L891.83,189C881.5,189 873,180.5 873,170.17L873,117L837,117L837,225L945,225L945,153L963.15,153C972.942,153 981,161.058 981,170.85L981,225L1017,225L1017,117Z" style="fill:#654ea3;fill-rule:nonzero;"/>
        </g>
        <g transform="matrix(0.674207,-1.16776,1.16776,0.674207,736.254,1341.13)">
            <path d="M909,261L909,369L1017,369L1017,333L945,333L945,315.47C945,305.338 953.338,297 963.47,297L1017,297L1017,261L909,261Z" style="fill:#654ea3;fill-rule:nonzero;"/>
        </g>
        <g transform="matrix(0.674207,-1.16776,1.16776,0.674207,736.254,1341.13)">
            <path d="M1017,693L837,693L837,801L873,801L873,749C873,738.028 882.028,729 893,729L909,729L909,801L998.83,801C1008.8,800.995 1017,792.796 1017,782.83L1017,693ZM945,765L945,729L961.91,729C972.382,729 981,737.618 981,748.09L981,765L945,765Z" style="fill:#654ea3;fill-rule:nonzero;"/>
        </g>
        <g transform="matrix(0.674207,-1.16776,1.16776,0.674207,736.254,1341.13)">
            <path d="M909,405L909,441L965.35,441C973.935,441 981,448.065 981,456.65L981,513L1017,513L1017,405L909,405Z" style="fill:#654ea3;fill-rule:nonzero;"/>
        </g>
        <g transform="matrix(0.674207,-1.16776,1.16776,0.674207,736.254,1341.13)">
            <path d="M909,837L909,873L961.71,873C972.292,873 981,881.708 981,892.29L981,945L1017,945L1017,837L909,837Z" style="fill:#654ea3;fill-rule:nonzero;"/>
        </g>
        <g transform="matrix(0.674207,-1.16776,1.16776,0.674207,736.254,1341.13)">
            <path d="M1017,549L765,549L765,585L873,585L873,637.94C873.005,648.394 881.606,656.995 892.06,657L909,657L909,585L962.29,585C972.554,585 981,593.446 981,603.71L981,621L945,621L945,657L1017,657L1017,549Z" style="fill:#654ea3;fill-rule:nonzero;"/>
        </g>
        <g transform="matrix(0.674207,1.16776,-1.16776,0.674207,1205.27,334.46)">
            <path d="M117,369L297,369L297,261L261,261L261,313C261,323.972 251.972,333 241,333L225,333L225,261L135.17,261C125.204,261.005 117.005,269.204 117,279.17L117,369ZM189,297L189,333L172.09,333C161.618,333 153,324.382 153,313.91L153,297L189,297Z" style="fill:#654ea3;fill-rule:nonzero;"/>
        </g>
        <g transform="matrix(9.99201e-16,1.34841,-1.34841,9.99201e-16,2215.77,1152.34)">
            <path d="M441,297L441,189L369,189L369,171.69C369,161.437 377.437,153 387.69,153L441,153L441,135.52C441,125.36 432.64,117 422.48,117L333,117L333,225L405,225L405,243.44C405,253.073 397.073,261 387.44,261L333,261L333,278.76C333,288.766 341.234,297 351.24,297L441,297Z" style="fill:#654ea3;fill-rule:nonzero;"/>
        </g>
        <g transform="matrix(1.88738e-15,1.34841,-1.34841,1.88738e-15,2497.6,674.116)">
            <path d="M441,297L441,189L369,189L369,171.69C369,161.437 377.437,153 387.69,153L441,153L441,135.52C441,125.36 432.64,117 422.48,117L333,117L333,225L405,225L405,243.44C405,253.073 397.073,261 387.44,261L333,261L333,278.76C333,288.766 341.234,297 351.24,297L441,297Z" style="fill:#654ea3;fill-rule:nonzero;"/>
        </g>
        <g transform="matrix(9.99201e-16,1.34841,-1.34841,9.99201e-16,2215.77,1152.34)">
            <path d="M601.86,261L549,261L549,349.13C549,360.03 557.97,369 568.87,369L657,369L657,135.18C657,125.207 648.793,117 638.82,117L621,117L621,241.86C621,252.36 612.36,261 601.86,261ZM621,333L585,333L585,297L621,297L621,333Z" style="fill:#654ea3;fill-rule:nonzero;"/>
        </g>
        <g transform="matrix(-1.55431e-15,-1.34841,1.34841,-1.55431e-15,2035.8,1914.7)">
            <path d="M601.86,261L549,261L549,349.13C549,360.03 557.97,369 568.87,369L657,369L657,135.18C657,125.207 648.793,117 638.82,117L621,117L621,241.86C621,252.36 612.36,261 601.86,261ZM621,333L585,333L585,297L621,297L621,333Z" style="fill:#654ea3;fill-rule:nonzero;"/>
        </g>
        <g transform="matrix(1.88738e-15,1.34841,-1.34841,1.88738e-15,2600.41,858.692)">
            <path d="M601.86,261L549,261L549,349.13C549,360.03 557.97,369 568.87,369L657,369L657,135.18C657,125.207 648.793,117 638.82,117L621,117L621,241.86C621,252.36 612.36,261 601.86,261ZM621,333L585,333L585,297L621,297L621,333Z" style="fill:#654ea3;fill-rule:nonzero;"/>
        </g>
        <g transform="matrix(9.99201e-16,1.34841,-1.34841,9.99201e-16,2215.77,1152.34)">
            <path d="M477,225L585,225L585,117L549,117L549,189L531.41,189C521.311,189 513,180.689 513,170.59L513,117L495.53,117C495.527,117 495.523,117 495.52,117C485.36,117 477,125.36 477,135.52C477,135.523 477,135.527 477,135.53L477,225Z" style="fill:#654ea3;fill-rule:nonzero;"/>
        </g>
        <g transform="matrix(1.88738e-15,1.34841,-1.34841,1.88738e-15,2595.86,858.401)">
            <path d="M477,225L585,225L585,117L549,117L549,189L531.41,189C521.311,189 513,180.689 513,170.59L513,117L495.53,117C495.527,117 495.523,117 495.52,117C485.36,117 477,125.36 477,135.52C477,135.523 477,135.527 477,135.53L477,225Z" style="fill:#654ea3;fill-rule:nonzero;"/>
        </g>
        <g transform="matrix(9.99201e-16,1.34841,-1.34841,9.99201e-16,2215.77,1152.34)">
            <path d="M711,225L783,225C792.875,225 801,216.875 801,207L801,135.4C801,135.387 801,135.373 801,135.36C801,125.292 792.718,117.005 782.65,117L693,117L693,207C693,216.875 701.125,225 711,225ZM752.91,153L765,153L765,189L729,189L729,176.91C729.005,163.795 739.795,153.005 752.91,153Z" style="fill:#654ea3;fill-rule:nonzero;"/>
        </g>
        <g transform="matrix(1.88738e-15,1.34841,-1.34841,1.88738e-15,2597.1,856.515)">
            <path d="M711,225L783,225C792.875,225 801,216.875 801,207L801,135.4C801,135.387 801,135.373 801,135.36C801,125.292 792.718,117.005 782.65,117L693,117L693,207C693,216.875 701.125,225 711,225ZM752.91,153L765,153L765,189L729,189L729,176.91C729.005,163.795 739.795,153.005 752.91,153Z" style="fill:#654ea3;fill-rule:nonzero;"/>
        </g>
        <g transform="matrix(0.674207,1.16776,-1.16776,0.674207,1962.05,899.152)">
            <path d="M1017,117L909,117L909,189L891.83,189C881.5,189 873,180.5 873,170.17L873,117L837,117L837,225L945,225L945,153L963.15,153C972.942,153 981,161.058 981,170.85L981,225L1017,225L1017,117Z" style="fill:#654ea3;fill-rule:nonzero;"/>
        </g>
        <g transform="matrix(0.674207,1.16776,-1.16776,0.674207,1962.05,899.152)">
            <path d="M909,261L909,369L1017,369L1017,333L945,333L945,315.47C945,305.338 953.338,297 963.47,297L1017,297L1017,261L909,261Z" style="fill:#654ea3;fill-rule:nonzero;"/>
        </g>
        <g transform="matrix(0.674207,1.16776,-1.16776,0.674207,1962.05,899.152)">
            <path d="M1017,693L837,693L837,801L873,801L873,749C873,738.028 882.028,729 893,729L909,729L909,801L998.83,801C1008.8,800.995 1017,792.796 1017,782.83L1017,693ZM945,765L945,729L961.91,729C972.382,729 981,737.618 981,748.09L981,765L945,765Z" style="fill:#654ea3;fill-rule:nonzero;"/>
        </g>
        <g transform="matrix(0.674207,1.16776,-1.16776,0.674207,1962.05,899.152)">
            <path d="M909,405L909,441L965.35,441C973.935,441 981,448.065 981,456.65L981,513L1017,513L1017,405L909,405Z" style="fill:#654ea3;fill-rule:nonzero;"/>
        </g>
        <g transform="matrix(0.674207,1.16776,-1.16776,0.674207,1962.05,899.152)">
            <path d="M909,837L909,873L961.71,873C972.292,873 981,881.708 981,892.29L981,945L1017,945L1017,837L909,837Z" style="fill:#654ea3;fill-rule:nonzero;"/>
        </g>
        <g transform="matrix(0.674207,1.16776,-1.16776,0.674207,1962.05,899.152)">
            <path d="M1017,549L765,549L765,585L873,585L873,637.94C873.005,648.394 881.606,656.995 892.06,657L909,657L909,585L962.29,585C972.554,585 981,593.446 981,603.71L981,621L945,621L945,657L1017,657L1017,549Z" style="fill:#654ea3;fill-rule:nonzero;"/>
        </g>
        <g transform="matrix(-1.34841,1.9984e-15,-1.9984e-15,-1.34841,2599.34,1808.66)">
            <path d="M117,369L297,369L297,261L261,261L261,313C261,323.972 251.972,333 241,333L225,333L225,261L135.17,261C125.204,261.005 117.005,269.204 117,279.17L117,369ZM189,297L189,333L172.09,333C161.618,333 153,324.382 153,313.91L153,297L189,297Z" style="fill:#654ea3;fill-rule:nonzero;"/>
        </g>
        <g transform="matrix(-1.16776,-0.674207,0.674207,-1.16776,1384.54,2276.82)">
            <path d="M441,297L441,189L369,189L369,171.69C369,161.437 377.437,153 387.69,153L441,153L441,135.52C441,125.36 432.64,117 422.48,117L333,117L333,225L405,225L405,243.44C405,253.073 397.073,261 387.44,261L333,261L333,278.76C333,288.766 341.234,297 351.24,297L441,297Z" style="fill:#654ea3;fill-rule:nonzero;"/>
        </g>
        <g transform="matrix(-1.16776,-0.674207,0.674207,-1.16776,1657.77,2760.01)">
            <path d="M441,297L441,189L369,189L369,171.69C369,161.437 377.437,153 387.69,153L441,153L441,135.52C441,125.36 432.64,117 422.48,117L333,117L333,225L405,225L405,243.44C405,253.073 397.073,261 387.44,261L333,261L333,278.76C333,288.766 341.234,297 351.24,297L441,297Z" style="fill:#654ea3;fill-rule:nonzero;"/>
        </g>
        <g transform="matrix(-1.16776,-0.674207,0.674207,-1.16776,1384.54,2276.82)">
            <path d="M601.86,261L549,261L549,349.13C549,360.03 557.97,369 568.87,369L657,369L657,135.18C657,125.207 648.793,117 638.82,117L621,117L621,241.86C621,252.36 612.36,261 601.86,261ZM621,333L585,333L585,297L621,297L621,333Z" style="fill:#654ea3;fill-rule:nonzero;"/>
        </g>
        <g transform="matrix(1.16776,0.674207,-0.674207,1.16776,814.293,1739.78)">
            <path d="M601.86,261L549,261L549,349.13C549,360.03 557.97,369 568.87,369L657,369L657,135.18C657,125.207 648.793,117 638.82,117L621,117L621,241.86C621,252.36 612.36,261 601.86,261ZM621,333L585,333L585,297L621,297L621,333Z" style="fill:#654ea3;fill-rule:nonzero;"/>
        </g>
        <g transform="matrix(-1.16776,-0.674207,0.674207,-1.16776,1446.52,2756.75)">
            <path d="M601.86,261L549,261L549,349.13C549,360.03 557.97,369 568.87,369L657,369L657,135.18C657,125.207 648.793,117 638.82,117L621,117L621,241.86C621,252.36 612.36,261 601.86,261ZM621,333L585,333L585,297L621,297L621,333Z" style="fill:#654ea3;fill-rule:nonzero;"/>
        </g>
        <g transform="matrix(-1.16776,-0.674207,0.674207,-1.16776,1384.54,2276.82)">
            <path d="M477,225L585,225L585,117L549,117L549,189L531.41,189C521.311,189 513,180.689 513,170.59L513,117L495.53,117C495.527,117 495.523,117 495.52,117C485.36,117 477,125.36 477,135.52C477,135.523 477,135.527 477,135.53L477,225Z" style="fill:#654ea3;fill-rule:nonzero;"/>
        </g>
        <g transform="matrix(-1.16776,-0.674207,0.674207,-1.16776,1449.05,2752.96)">
            <path d="M477,225L585,225L585,117L549,117L549,189L531.41,189C521.311,189 513,180.689 513,170.59L513,117L495.53,117C495.527,117 495.523,117 495.52,117C485.36,117 477,125.36 477,135.52C477,135.523 477,135.527 477,135.53L477,225Z" style="fill:#654ea3;fill-rule:nonzero;"/>
        </g>
        <g transform="matrix(-1.16776,-0.674207,0.674207,-1.16776,1384.54,2276.82)">
            <path d="M711,225L783,225C792.875,225 801,216.875 801,207L801,135.4C801,135.387 801,135.373 801,135.36C801,125.292 792.718,117.005 782.65,117L693,117L693,207C693,216.875 701.125,225 711,225ZM752.91,153L765,153L765,189L729,189L729,176.91C729.005,163.795 739.795,153.005 752.91,153Z" style="fill:#654ea3;fill-rule:nonzero;"/>
        </g>
        <g transform="matrix(-1.16776,-0.674207,0.674207,-1.16776,1450.06,2754.98)">
            <path d="M711,225L783,225C792.875,225 801,216.875 801,207L801,135.4C801,135.387 801,135.373 801,135.36C801,125.292 792.718,117.005 782.65,117L693,117L693,207C693,216.875 701.125,225 711,225ZM752.91,153L765,153L765,189L729,189L729,176.91C729.005,163.795 739.795,153.005 752.91,153Z" style="fill:#654ea3;fill-rule:nonzero;"/>
        </g>
        <g transform="matrix(-1.34841,2.22045e-15,-2.22045e-15,-1.34841,1730.66,2183.69)">
            <path d="M1017,117L909,117L909,189L891.83,189C881.5,189 873,180.5 873,170.17L873,117L837,117L837,225L945,225L945,153L963.15,153C972.942,153 981,161.058 981,170.85L981,225L1017,225L1017,117Z" style="fill:#654ea3;fill-rule:nonzero;"/>
        </g>
        <g transform="matrix(-1.34841,2.22045e-15,-2.22045e-15,-1.34841,1730.66,2183.69)">
            <path d="M909,261L909,369L1017,369L1017,333L945,333L945,315.47C945,305.338 953.338,297 963.47,297L1017,297L1017,261L909,261Z" style="fill:#654ea3;fill-rule:nonzero;"/>
        </g>
        <g transform="matrix(-1.34841,2.22045e-15,-2.22045e-15,-1.34841,1730.66,2183.69)">
            <path d="M1017,693L837,693L837,801L873,801L873,749C873,738.028 882.028,729 893,729L909,729L909,801L998.83,801C1008.8,800.995 1017,792.796 1017,782.83L1017,693ZM945,765L945,729L961.91,729C972.382,729 981,737.618 981,748.09L981,765L945,765Z" style="fill:#654ea3;fill-rule:nonzero;"/>
        </g>
        <g transform="matrix(-1.34841,2.22045e-15,-2.22045e-15,-1.34841,1730.66,2183.69)">
            <path d="M909,405L909,441L965.35,441C973.935,441 981,448.065 981,456.65L981,513L1017,513L1017,405L909,405Z" style="fill:#654ea3;fill-rule:nonzero;"/>
        </g>
        <g transform="matrix(-1.34841,2.22045e-15,-2.22045e-15,-1.34841,1730.66,2183.69)">
            <path d="M909,837L909,873L961.71,873C972.292,873 981,881.708 981,892.29L981,945L1017,945L1017,837L909,837Z" style="fill:#654ea3;fill-rule:nonzero;"/>
        </g>
        <g transform="matrix(-1.34841,2.22045e-15,-2.22045e-15,-1.34841,1730.66,2183.69)">
            <path d="M1017,549L765,549L765,585L873,585L873,637.94C873.005,648.394 881.606,656.995 892.06,657L909,657L909,585L962.29,585C972.554,585 981,593.446 981,603.71L981,621L945,621L945,657L1017,657L1017,549Z" style="fill:#654ea3;fill-rule:nonzero;"/>
        </g>
        <g transform="matrix(0.674207,-1.16776,1.16776,0.674207,624.358,2280.85)">
            <path d="M117,369L297,369L297,261L261,261L261,313C261,323.972 251.972,333 241,333L225,333L225,261L135.17,261C125.204,261.005 117.005,269.204 117,279.17L117,369ZM189,297L189,333L172.09,333C161.618,333 153,324.382 153,313.91L153,297L189,297Z" style="fill:#654ea3;fill-rule:nonzero;"/>
        </g>
    </g>
</svg>
